<svg width="250" height="250" viewBox="0 0 250 250" fill="none" xmlns="http://www.w3.org/2000/svg">
<rect width="250" height="250" fill="white"/>
<g filter="url(#filter0_d_390_228)">
<g filter="url(#filter1_d_390_228)">
<g filter="url(#filter2_d_390_228)">
<path d="M65.28 81.16C69.68 81.16 73.44 82 76.56 83.68C79.68 85.36 81.24 86.92 81.24 88.36C81.24 89.56 80.76 90.72 79.8 91.84C78.92 92.88 78.12 93.4 77.4 93.4C76.68 93.4 75.88 93 75 92.2C72.36 89.8 69.08 88.6 65.16 88.6C61.24 88.6 57.8 89.44 54.84 91.12C51.96 92.8 49.72 95.04 48.12 97.84C44.84 103.52 43.2 109.68 43.2 116.32C43.2 122.88 44.56 127.84 47.28 131.2C50.08 134.56 54.12 136.24 59.4 136.24C61.8 136.24 64.16 135.72 66.48 134.68C68.88 133.64 70.76 132.6 72.12 131.56C73.48 130.44 74.2 129.88 74.28 129.88C75.16 129.88 75.88 130.48 76.44 131.68C77.08 132.88 77.4 134.08 77.4 135.28C77.4 136.72 75.28 138.48 71.04 140.56C66.88 142.64 62.84 143.68 58.92 143.68C50.6 143.68 44.24 141.36 39.84 136.72C35.52 132 33.36 125.16 33.36 116.2C33.36 107.16 36.28 99.08 42.12 91.96C47.96 84.76 55.68 81.16 65.28 81.16Z" fill="black"/>
</g>
<g filter="url(#filter3_d_390_228)">
<path d="M99.5586 117.858L103.949 124.795C104.491 125.649 105.017 126.29 105.527 126.717C106.038 127.144 106.632 127.358 107.309 127.358H107.402V128.701H106.949C105.949 128.701 105.126 128.665 104.48 128.592C103.845 128.519 103.303 128.378 102.855 128.17C102.408 127.962 102.022 127.67 101.699 127.295C101.387 126.92 101.048 126.431 100.684 125.826L96.3555 118.623H93.6992V125.217C93.6992 126.102 93.9388 126.681 94.418 126.951C94.8971 127.222 95.5326 127.358 96.3242 127.358H96.7461V128.701H87.4336V127.358H87.8398C88.6315 127.358 89.2669 127.222 89.7461 126.951C90.2253 126.681 90.4648 126.102 90.4648 125.217V109.373C90.4648 108.477 90.2201 107.894 89.7305 107.623C89.2409 107.342 88.6107 107.201 87.8398 107.201H87.4336V105.858H96.043C101.522 105.858 104.262 107.915 104.262 112.03C104.262 112.884 104.121 113.634 103.84 114.28C103.569 114.915 103.21 115.467 102.762 115.936C102.314 116.405 101.809 116.795 101.246 117.108C100.684 117.42 100.121 117.67 99.5586 117.858ZM95.8711 107.389H93.6992V117.123H95.9492C97.7617 117.123 99.043 116.707 99.793 115.873C100.168 115.457 100.434 114.936 100.59 114.311C100.757 113.686 100.84 112.957 100.84 112.123C100.84 110.405 100.465 109.186 99.7148 108.467C98.9544 107.748 97.6732 107.389 95.8711 107.389ZM122.418 117.53H114.699V127.108H120.871C121.829 127.108 122.548 126.863 123.027 126.373C123.507 125.884 123.803 125.253 123.918 124.483L124.137 123.108H125.809L125.59 128.701H108.434V127.358H108.84C109.632 127.358 110.267 127.222 110.746 126.951C111.225 126.681 111.465 126.102 111.465 125.217V109.498C111.465 108.561 111.225 107.946 110.746 107.655C110.277 107.352 109.642 107.201 108.84 107.201H108.434V105.858H124.559L124.715 111.451H123.059L122.902 110.076C122.809 109.306 122.543 108.675 122.105 108.186C121.668 107.696 120.991 107.451 120.074 107.451H114.699V115.967H122.418V117.53ZM170.199 109.498V128.701H167.918L155.918 110.264V125.061C155.918 126.009 156.158 126.628 156.637 126.92C157.116 127.212 157.751 127.358 158.543 127.358H158.965V128.701H150.934V127.358H151.34C152.142 127.358 152.777 127.212 153.246 126.92C153.725 126.618 153.965 125.998 153.965 125.061V109.373C153.965 108.477 153.72 107.894 153.23 107.623C152.741 107.342 152.111 107.201 151.34 107.201H150.934V105.858H156.793L168.246 123.545V109.373C168.246 108.477 168.001 107.894 167.512 107.623C167.022 107.342 166.392 107.201 165.621 107.201H165.199V105.858H173.23V107.201H172.824C172.022 107.201 171.382 107.352 170.902 107.655C170.434 107.946 170.199 108.561 170.199 109.498ZM211.902 124.639L210.621 121.061H202.215L200.996 124.42C200.798 124.951 200.699 125.41 200.699 125.795C200.699 126.837 201.408 127.358 202.824 127.358H203.559V128.701H195.746V127.358H196.355C197.033 127.358 197.517 127.175 197.809 126.811C198.111 126.436 198.439 125.785 198.793 124.858L205.887 105.858H208.387L215.621 125.655C215.861 126.3 216.137 126.748 216.449 126.998C216.762 127.238 217.241 127.358 217.887 127.358H218.309V128.701H209.512V127.358H210.246C211.527 127.358 212.168 126.847 212.168 125.826C212.168 125.649 212.142 125.467 212.09 125.28C212.048 125.092 211.986 124.878 211.902 124.639ZM202.824 119.451H210.043L208.059 113.858C207.725 112.91 207.418 112.024 207.137 111.201C206.866 110.368 206.642 109.566 206.465 108.795C206.34 109.451 206.137 110.212 205.855 111.076C205.585 111.941 205.298 112.769 204.996 113.561L202.824 119.451Z" fill="black"/>
<path d="M143.309 124.639L142.027 121.061H133.621L132.402 124.42C132.204 124.951 132.105 125.41 132.105 125.795C132.105 126.837 132.814 127.358 134.23 127.358H134.965V128.701H127.152V127.358H127.762C128.439 127.358 128.923 127.175 129.215 126.811C129.517 126.436 129.845 125.785 130.199 124.858L137.293 105.858H139.793L147.027 125.655C147.267 126.3 147.543 126.748 147.855 126.998C148.168 127.238 148.647 127.358 149.293 127.358H149.715V128.701H140.918V127.358H141.652C142.934 127.358 143.574 126.847 143.574 125.826C143.574 125.649 143.548 125.467 143.496 125.28C143.454 125.092 143.392 124.878 143.309 124.639ZM134.23 119.451H141.449L139.465 113.858C139.132 112.91 138.824 112.024 138.543 111.201C138.272 110.368 138.048 109.566 137.871 108.795C137.746 109.451 137.543 110.212 137.262 111.076C136.991 111.941 136.704 112.769 136.402 113.561L134.23 119.451Z" fill="#F608FB"/>
<path d="M192.715 109.686L186.09 128.701H183.746L176.84 108.889C176.621 108.243 176.345 107.8 176.012 107.561C175.689 107.321 175.21 107.201 174.574 107.201H174.152V105.858H182.949V107.201H182.215C180.934 107.201 180.293 107.712 180.293 108.733C180.293 108.91 180.314 109.092 180.355 109.28C180.408 109.467 180.475 109.681 180.559 109.92L184.074 120.311C184.397 121.259 184.673 122.181 184.902 123.076C185.132 123.962 185.335 124.79 185.512 125.561C185.678 124.79 185.876 123.972 186.105 123.108C186.335 122.243 186.626 121.311 186.98 120.311L190.512 110.139C190.699 109.576 190.793 109.118 190.793 108.764C190.793 107.722 190.09 107.201 188.684 107.201H187.949V105.858H195.746V107.201H195.137C194.449 107.201 193.954 107.378 193.652 107.733C193.35 108.087 193.038 108.738 192.715 109.686Z" fill="#F7FC14"/>
</g>
<path d="M69.3583 105.252C69.6153 104.328 70.8988 104.262 71.2516 105.153L73.6769 111.282C73.835 111.682 74.2305 111.936 74.6594 111.913L81.369 111.564C82.3445 111.513 82.8075 112.748 82.039 113.35L76.8682 117.402C76.5198 117.675 76.3926 118.145 76.5556 118.557L78.9446 124.594C79.3 125.492 78.3021 126.322 77.4837 125.808L71.7796 122.23C71.4223 122.006 70.9631 122.03 70.6314 122.29L65.3352 126.44C64.5754 127.036 63.4956 126.315 63.7545 125.384L65.4948 119.132C65.6135 118.706 65.4375 118.252 65.0623 118.017L59.4932 114.523C58.6654 114.004 58.996 112.728 59.9714 112.678L66.681 112.328C67.11 112.306 67.4766 112.012 67.5917 111.599L69.3583 105.252Z" fill="#7E24B5"/>
</g>
<path d="M102.854 134.677C102.654 134.829 102.506 134.973 102.41 135.109C102.314 135.237 102.226 135.409 102.146 135.625L100.634 140.149H99.6018L98.5818 136.777L97.5738 140.149H96.5298L94.9938 135.625C94.9138 135.401 94.8258 135.229 94.7298 135.109C94.6418 134.981 94.4978 134.837 94.2978 134.677L94.3938 134.545H96.5778L96.6498 134.761L96.4818 134.809C96.3618 134.849 96.2738 134.901 96.2178 134.965C96.1698 135.021 96.1458 135.101 96.1458 135.205C96.1458 135.285 96.1738 135.413 96.2298 135.589L97.4298 139.165L98.3538 136.045L98.2218 135.625C98.1418 135.401 98.0538 135.229 97.9578 135.109C97.8698 134.981 97.7258 134.837 97.5258 134.677L97.6218 134.545H99.8058L99.8898 134.761L99.7098 134.809C99.5818 134.841 99.4938 134.889 99.4458 134.953C99.3978 135.009 99.3738 135.093 99.3738 135.205C99.3738 135.285 99.4018 135.413 99.4578 135.589L100.514 139.177L101.702 135.613C101.758 135.437 101.786 135.305 101.786 135.217C101.786 135.121 101.758 135.045 101.702 134.989C101.654 134.925 101.57 134.877 101.45 134.845L101.234 134.761L101.306 134.545H102.758L102.854 134.677ZM107.164 139.465C107.164 139.705 107.24 139.825 107.392 139.825C107.544 139.825 107.692 139.765 107.836 139.645L107.932 139.765C107.636 140.093 107.288 140.257 106.888 140.257C106.6 140.257 106.392 140.185 106.264 140.041C106.144 139.889 106.084 139.645 106.084 139.309V137.473C106.084 137.009 105.936 136.777 105.64 136.777C105.352 136.777 105.12 136.973 104.944 137.365C104.768 137.757 104.68 138.269 104.68 138.901C104.68 139.149 104.696 139.349 104.728 139.501C104.768 139.645 104.832 139.781 104.92 139.909L105.016 140.029L104.92 140.149H103.18L103.108 139.945L103.276 139.909C103.404 139.877 103.488 139.829 103.528 139.765C103.568 139.693 103.588 139.557 103.588 139.357V135.073C103.588 135.009 103.572 134.957 103.54 134.917C103.516 134.877 103.48 134.857 103.432 134.857H103.06L103.012 134.737C103.164 134.593 103.36 134.481 103.6 134.401C103.848 134.313 104.092 134.269 104.332 134.269C104.436 134.269 104.52 134.293 104.584 134.341C104.648 134.381 104.68 134.441 104.68 134.521V137.485C104.792 137.109 104.988 136.797 105.268 136.549C105.556 136.293 105.86 136.165 106.18 136.165C106.524 136.165 106.772 136.277 106.924 136.501C107.084 136.725 107.164 137.081 107.164 137.569V139.465ZM110.579 139.861C110.811 139.861 111.015 139.821 111.191 139.741C111.367 139.653 111.539 139.509 111.707 139.309L111.851 139.417C111.667 139.681 111.431 139.889 111.143 140.041C110.863 140.185 110.555 140.257 110.219 140.257C109.851 140.257 109.519 140.169 109.223 139.993C108.935 139.817 108.707 139.577 108.539 139.273C108.371 138.961 108.287 138.609 108.287 138.217C108.287 137.593 108.475 137.097 108.851 136.729C109.235 136.353 109.743 136.165 110.375 136.165C110.823 136.165 111.187 136.273 111.467 136.489C111.755 136.697 111.899 136.969 111.899 137.305C111.899 137.689 111.735 137.997 111.407 138.229C111.087 138.453 110.647 138.565 110.087 138.565C109.863 138.565 109.659 138.549 109.475 138.517C109.515 138.933 109.635 139.261 109.835 139.501C110.035 139.741 110.283 139.861 110.579 139.861ZM110.243 136.453C109.995 136.453 109.799 136.605 109.655 136.909C109.519 137.205 109.451 137.621 109.451 138.157V138.349C109.539 138.349 109.647 138.341 109.775 138.325C110.111 138.285 110.367 138.177 110.543 138.001C110.727 137.817 110.819 137.577 110.819 137.281C110.819 137.041 110.763 136.845 110.651 136.693C110.547 136.533 110.411 136.453 110.243 136.453ZM115.039 136.165C115.295 136.165 115.503 136.241 115.663 136.393C115.823 136.537 115.903 136.725 115.903 136.957C115.903 137.173 115.839 137.349 115.711 137.485C115.583 137.613 115.415 137.677 115.207 137.677C115.047 137.677 114.899 137.645 114.763 137.581C114.907 137.461 114.979 137.281 114.979 137.041C114.979 136.929 114.955 136.841 114.907 136.777C114.859 136.713 114.795 136.681 114.715 136.681C114.523 136.681 114.363 136.877 114.235 137.269C114.107 137.653 114.043 138.133 114.043 138.709C114.043 139.005 114.059 139.241 114.091 139.417C114.131 139.593 114.195 139.757 114.283 139.909L114.379 140.029L114.283 140.149H112.543L112.471 139.945L112.639 139.909C112.767 139.877 112.851 139.829 112.891 139.765C112.931 139.693 112.951 139.557 112.951 139.357V137.017C112.951 136.865 112.899 136.789 112.795 136.789H112.423L112.375 136.657C112.527 136.521 112.715 136.409 112.939 136.321C113.171 136.233 113.399 136.189 113.623 136.189C113.727 136.189 113.811 136.213 113.875 136.261C113.939 136.309 113.971 136.373 113.971 136.453V137.329H114.007C114.175 136.553 114.519 136.165 115.039 136.165ZM118.524 139.861C118.756 139.861 118.96 139.821 119.136 139.741C119.312 139.653 119.484 139.509 119.652 139.309L119.796 139.417C119.612 139.681 119.376 139.889 119.088 140.041C118.808 140.185 118.5 140.257 118.164 140.257C117.796 140.257 117.464 140.169 117.168 139.993C116.88 139.817 116.652 139.577 116.484 139.273C116.316 138.961 116.232 138.609 116.232 138.217C116.232 137.593 116.42 137.097 116.796 136.729C117.18 136.353 117.688 136.165 118.32 136.165C118.768 136.165 119.132 136.273 119.412 136.489C119.7 136.697 119.844 136.969 119.844 137.305C119.844 137.689 119.68 137.997 119.352 138.229C119.032 138.453 118.592 138.565 118.032 138.565C117.808 138.565 117.604 138.549 117.42 138.517C117.46 138.933 117.58 139.261 117.78 139.501C117.98 139.741 118.228 139.861 118.524 139.861ZM118.188 136.453C117.94 136.453 117.744 136.605 117.6 136.909C117.464 137.205 117.396 137.621 117.396 138.157V138.349C117.484 138.349 117.592 138.341 117.72 138.325C118.056 138.285 118.312 138.177 118.488 138.001C118.672 137.817 118.764 137.577 118.764 137.281C118.764 137.041 118.708 136.845 118.596 136.693C118.492 136.533 118.356 136.453 118.188 136.453ZM126.848 134.677L126.728 134.809C126.512 135.073 126.328 135.349 126.176 135.637L125.084 137.725V139.153C125.084 139.337 125.1 139.477 125.132 139.573C125.172 139.661 125.236 139.729 125.324 139.777C125.412 139.825 125.552 139.877 125.744 139.933L125.672 140.149H123.572L123.476 140.029L123.572 139.885C123.708 139.709 123.8 139.529 123.848 139.345C123.904 139.153 123.932 138.897 123.932 138.577V137.749L122.792 135.661C122.664 135.405 122.544 135.209 122.432 135.073C122.32 134.929 122.18 134.797 122.012 134.677L122.12 134.545H124.316L124.376 134.761L124.196 134.809C123.964 134.857 123.848 134.949 123.848 135.085C123.848 135.133 123.868 135.201 123.908 135.289C123.948 135.377 124.008 135.497 124.088 135.649L124.904 137.185L125.768 135.541C125.832 135.437 125.864 135.333 125.864 135.229C125.864 135.125 125.832 135.037 125.768 134.965C125.704 134.885 125.624 134.833 125.528 134.809L125.3 134.761L125.372 134.545H126.752L126.848 134.677ZM127.248 138.217C127.248 137.585 127.428 137.085 127.788 136.717C128.156 136.349 128.652 136.165 129.276 136.165C129.9 136.165 130.396 136.353 130.764 136.729C131.132 137.097 131.316 137.593 131.316 138.217C131.316 138.841 131.132 139.337 130.764 139.705C130.396 140.073 129.9 140.257 129.276 140.257C128.652 140.257 128.156 140.073 127.788 139.705C127.428 139.337 127.248 138.841 127.248 138.217ZM130.104 138.241C130.104 137.705 130.028 137.269 129.876 136.933C129.724 136.589 129.532 136.417 129.3 136.417C129.044 136.417 128.836 136.585 128.676 136.921C128.516 137.249 128.436 137.681 128.436 138.217C128.436 138.761 128.508 139.193 128.652 139.513C128.804 139.833 129.004 139.993 129.252 139.993C129.5 139.993 129.704 139.833 129.864 139.513C130.024 139.185 130.104 138.761 130.104 138.241ZM134.805 139.057C134.693 139.409 134.497 139.697 134.217 139.921C133.945 140.145 133.653 140.257 133.341 140.257C132.989 140.257 132.729 140.145 132.561 139.921C132.393 139.697 132.309 139.353 132.309 138.889V136.933C132.309 136.821 132.257 136.765 132.153 136.765H131.781L131.745 136.633C131.905 136.497 132.105 136.385 132.345 136.297C132.585 136.209 132.821 136.165 133.053 136.165C133.157 136.165 133.237 136.189 133.293 136.237C133.357 136.285 133.389 136.349 133.389 136.429V138.829C133.389 139.101 133.429 139.313 133.509 139.465C133.589 139.609 133.701 139.681 133.845 139.681C134.141 139.681 134.377 139.501 134.553 139.141C134.737 138.773 134.829 138.297 134.829 137.713C134.829 137.401 134.805 137.161 134.757 136.993C134.717 136.817 134.641 136.665 134.529 136.537L134.421 136.405L134.517 136.297L135.897 136.189V139.465C135.897 139.705 135.969 139.825 136.113 139.825C136.265 139.825 136.413 139.765 136.557 139.645L136.653 139.765C136.373 140.093 136.025 140.257 135.609 140.257C135.305 140.257 135.093 140.169 134.973 139.993C134.861 139.817 134.805 139.505 134.805 139.057ZM139.625 136.165C139.881 136.165 140.089 136.241 140.249 136.393C140.409 136.537 140.489 136.725 140.489 136.957C140.489 137.173 140.425 137.349 140.297 137.485C140.169 137.613 140.001 137.677 139.793 137.677C139.633 137.677 139.485 137.645 139.349 137.581C139.493 137.461 139.565 137.281 139.565 137.041C139.565 136.929 139.541 136.841 139.493 136.777C139.445 136.713 139.381 136.681 139.301 136.681C139.109 136.681 138.949 136.877 138.821 137.269C138.693 137.653 138.629 138.133 138.629 138.709C138.629 139.005 138.645 139.241 138.677 139.417C138.717 139.593 138.781 139.757 138.869 139.909L138.965 140.029L138.869 140.149H137.129L137.057 139.945L137.225 139.909C137.353 139.877 137.437 139.829 137.477 139.765C137.517 139.693 137.537 139.557 137.537 139.357V137.017C137.537 136.865 137.485 136.789 137.381 136.789H137.009L136.961 136.657C137.113 136.521 137.301 136.409 137.525 136.321C137.757 136.233 137.985 136.189 138.209 136.189C138.313 136.189 138.397 136.213 138.461 136.261C138.525 136.309 138.557 136.373 138.557 136.453V137.329H138.593C138.761 136.553 139.105 136.165 139.625 136.165ZM142.882 139.933C143.066 139.885 143.198 139.837 143.278 139.789C143.366 139.733 143.422 139.661 143.446 139.573C143.478 139.477 143.494 139.337 143.494 139.153V136.033C143.494 135.649 143.462 135.381 143.398 135.229C143.342 135.069 143.198 134.893 142.966 134.701L143.074 134.545H145.102L145.186 134.737C144.954 134.873 144.806 135.001 144.742 135.121C144.678 135.233 144.646 135.437 144.646 135.733V138.685C144.646 139.061 144.674 139.329 144.73 139.489C144.794 139.641 144.938 139.813 145.162 140.005L145.066 140.149H142.966L142.882 139.933ZM150.441 139.765C150.145 140.093 149.797 140.257 149.397 140.257C149.149 140.257 148.965 140.205 148.845 140.101C148.725 139.989 148.645 139.809 148.605 139.561C148.397 139.801 148.181 139.977 147.957 140.089C147.733 140.201 147.485 140.257 147.213 140.257C146.813 140.257 146.485 140.081 146.229 139.729C145.981 139.377 145.857 138.921 145.857 138.361C145.857 137.689 146.033 137.157 146.385 136.765C146.737 136.365 147.217 136.165 147.825 136.165C148.105 136.165 148.361 136.229 148.593 136.357V135.025C148.593 134.913 148.541 134.857 148.437 134.857H148.029L147.981 134.737C148.141 134.593 148.345 134.481 148.593 134.401C148.841 134.313 149.085 134.269 149.325 134.269C149.429 134.269 149.513 134.293 149.577 134.341C149.641 134.381 149.673 134.441 149.673 134.521V139.465C149.673 139.705 149.749 139.825 149.901 139.825C150.053 139.825 150.201 139.765 150.345 139.645L150.441 139.765ZM147.837 139.681C148.141 139.681 148.393 139.513 148.593 139.177V136.597C148.433 136.517 148.257 136.477 148.065 136.477C147.393 136.477 147.057 137.057 147.057 138.217C147.057 138.689 147.121 139.053 147.249 139.309C147.385 139.557 147.581 139.681 147.837 139.681ZM153.047 139.861C153.279 139.861 153.483 139.821 153.659 139.741C153.835 139.653 154.007 139.509 154.175 139.309L154.319 139.417C154.135 139.681 153.899 139.889 153.611 140.041C153.331 140.185 153.023 140.257 152.687 140.257C152.319 140.257 151.987 140.169 151.691 139.993C151.403 139.817 151.175 139.577 151.007 139.273C150.839 138.961 150.755 138.609 150.755 138.217C150.755 137.593 150.943 137.097 151.319 136.729C151.703 136.353 152.211 136.165 152.843 136.165C153.291 136.165 153.655 136.273 153.935 136.489C154.223 136.697 154.367 136.969 154.367 137.305C154.367 137.689 154.203 137.997 153.875 138.229C153.555 138.453 153.115 138.565 152.555 138.565C152.331 138.565 152.127 138.549 151.943 138.517C151.983 138.933 152.103 139.261 152.303 139.501C152.503 139.741 152.751 139.861 153.047 139.861ZM152.711 136.453C152.463 136.453 152.267 136.605 152.123 136.909C151.987 137.205 151.919 137.621 151.919 138.157V138.349C152.007 138.349 152.115 138.341 152.243 138.325C152.579 138.285 152.835 138.177 153.011 138.001C153.195 137.817 153.287 137.577 153.287 137.281C153.287 137.041 153.231 136.845 153.119 136.693C153.015 136.533 152.879 136.453 152.711 136.453ZM156.272 137.497C156.104 137.593 155.904 137.641 155.672 137.641C155.504 137.641 155.372 137.593 155.276 137.497C155.18 137.393 155.132 137.249 155.132 137.065C155.132 136.793 155.264 136.577 155.528 136.417C155.8 136.249 156.152 136.165 156.584 136.165C157.096 136.165 157.496 136.277 157.784 136.501C158.08 136.725 158.228 137.029 158.228 137.413V139.489C158.228 139.713 158.308 139.825 158.468 139.825C158.62 139.825 158.768 139.765 158.912 139.645L159.008 139.765C158.712 140.093 158.36 140.257 157.952 140.257C157.712 140.257 157.528 140.197 157.4 140.077C157.28 139.957 157.208 139.769 157.184 139.513H157.136C157.008 139.745 156.836 139.929 156.62 140.065C156.412 140.193 156.172 140.257 155.9 140.257C155.596 140.257 155.352 140.165 155.168 139.981C154.984 139.789 154.892 139.541 154.892 139.237C154.892 138.893 155.056 138.621 155.384 138.421C155.712 138.221 156.156 138.121 156.716 138.121C156.82 138.121 156.968 138.129 157.16 138.145V137.545C157.16 137.153 157.112 136.873 157.016 136.705C156.92 136.529 156.764 136.441 156.548 136.441C156.396 136.441 156.276 136.489 156.188 136.585C156.1 136.681 156.056 136.805 156.056 136.957C156.056 137.197 156.128 137.377 156.272 137.497ZM156.452 139.657C156.924 139.657 157.16 139.229 157.16 138.373C156.76 138.373 156.46 138.441 156.26 138.577C156.06 138.705 155.96 138.889 155.96 139.129C155.96 139.289 156.004 139.417 156.092 139.513C156.18 139.609 156.3 139.657 156.452 139.657ZM160.463 136.981C160.463 137.181 160.539 137.345 160.691 137.473C160.851 137.593 161.091 137.729 161.411 137.881C161.675 138.009 161.879 138.121 162.023 138.217C162.167 138.305 162.291 138.425 162.395 138.577C162.507 138.729 162.563 138.909 162.563 139.117C162.563 139.461 162.399 139.737 162.071 139.945C161.751 140.153 161.319 140.257 160.775 140.257C160.367 140.257 160.031 140.185 159.767 140.041C159.503 139.889 159.371 139.693 159.371 139.453C159.371 139.293 159.431 139.161 159.551 139.057C159.671 138.945 159.819 138.889 159.995 138.889C160.131 138.889 160.267 138.917 160.403 138.973C160.267 139.077 160.199 139.245 160.199 139.477C160.199 139.637 160.255 139.761 160.367 139.849C160.479 139.937 160.615 139.981 160.775 139.981C160.959 139.981 161.115 139.933 161.243 139.837C161.379 139.741 161.447 139.605 161.447 139.429C161.447 139.261 161.379 139.129 161.243 139.033C161.115 138.929 160.911 138.809 160.631 138.673C160.375 138.553 160.167 138.445 160.007 138.349C159.855 138.245 159.723 138.109 159.611 137.941C159.499 137.773 159.443 137.569 159.443 137.329C159.443 136.969 159.595 136.685 159.899 136.477C160.203 136.269 160.587 136.165 161.051 136.165C161.459 136.165 161.791 136.241 162.047 136.393C162.311 136.545 162.443 136.741 162.443 136.981C162.443 137.165 162.387 137.301 162.275 137.389C162.163 137.477 162.019 137.521 161.843 137.521C161.675 137.521 161.527 137.485 161.399 137.413C161.543 137.277 161.615 137.105 161.615 136.897C161.615 136.761 161.563 136.653 161.459 136.573C161.355 136.485 161.219 136.441 161.051 136.441C160.867 136.441 160.723 136.493 160.619 136.597C160.515 136.701 160.463 136.829 160.463 136.981ZM167.916 139.153C167.916 139.337 167.932 139.477 167.964 139.573C168.004 139.661 168.068 139.729 168.156 139.777C168.244 139.825 168.388 139.877 168.588 139.933L168.504 140.149H166.416L166.32 140.029L166.416 139.885C166.552 139.701 166.644 139.517 166.692 139.333C166.748 139.141 166.772 138.889 166.764 138.577V135.349C166.764 135.149 166.744 135.017 166.704 134.953C166.672 134.881 166.604 134.845 166.5 134.845H166.368C166.096 134.845 165.892 134.929 165.756 135.097C165.62 135.257 165.48 135.549 165.336 135.973L165.096 135.889V134.389L165.216 134.281L165.36 134.389C165.512 134.493 165.808 134.545 166.248 134.545H168.444C168.884 134.545 169.18 134.493 169.332 134.389L169.476 134.281L169.608 134.389V135.889L169.356 135.973C169.204 135.533 169.06 135.237 168.924 135.085C168.796 134.925 168.6 134.845 168.336 134.845H168.18C168.076 134.845 168.004 134.881 167.964 134.953C167.932 135.017 167.916 135.149 167.916 135.349V139.153ZM170.698 137.497C170.53 137.593 170.33 137.641 170.098 137.641C169.93 137.641 169.798 137.593 169.702 137.497C169.606 137.393 169.558 137.249 169.558 137.065C169.558 136.793 169.69 136.577 169.954 136.417C170.226 136.249 170.578 136.165 171.01 136.165C171.522 136.165 171.922 136.277 172.21 136.501C172.506 136.725 172.654 137.029 172.654 137.413V139.489C172.654 139.713 172.734 139.825 172.894 139.825C173.046 139.825 173.194 139.765 173.338 139.645L173.434 139.765C173.138 140.093 172.786 140.257 172.378 140.257C172.138 140.257 171.954 140.197 171.826 140.077C171.706 139.957 171.634 139.769 171.61 139.513H171.562C171.434 139.745 171.262 139.929 171.046 140.065C170.838 140.193 170.598 140.257 170.326 140.257C170.022 140.257 169.778 140.165 169.594 139.981C169.41 139.789 169.318 139.541 169.318 139.237C169.318 138.893 169.482 138.621 169.81 138.421C170.138 138.221 170.582 138.121 171.142 138.121C171.246 138.121 171.394 138.129 171.586 138.145V137.545C171.586 137.153 171.538 136.873 171.442 136.705C171.346 136.529 171.19 136.441 170.974 136.441C170.822 136.441 170.702 136.489 170.614 136.585C170.526 136.681 170.482 136.805 170.482 136.957C170.482 137.197 170.554 137.377 170.698 137.497ZM170.878 139.657C171.35 139.657 171.586 139.229 171.586 138.373C171.186 138.373 170.886 138.441 170.686 138.577C170.486 138.705 170.386 138.889 170.386 139.129C170.386 139.289 170.43 139.417 170.518 139.513C170.606 139.609 170.726 139.657 170.878 139.657ZM178.165 139.789C177.885 140.101 177.537 140.257 177.121 140.257C176.865 140.257 176.661 140.201 176.509 140.089C176.365 139.977 176.253 139.789 176.173 139.525L175.801 138.469C175.753 138.333 175.689 138.229 175.609 138.157C175.537 138.085 175.437 138.033 175.309 138.001V138.901C175.309 139.149 175.325 139.345 175.357 139.489C175.397 139.633 175.461 139.773 175.549 139.909L175.645 140.029L175.549 140.149H173.809L173.737 139.945L173.905 139.909C174.033 139.877 174.117 139.829 174.157 139.765C174.197 139.693 174.217 139.557 174.217 139.357V135.025C174.217 134.913 174.165 134.857 174.061 134.857H173.689L173.641 134.737C173.793 134.593 173.989 134.481 174.229 134.401C174.477 134.313 174.721 134.269 174.961 134.269C175.065 134.269 175.149 134.293 175.213 134.341C175.277 134.381 175.309 134.441 175.309 134.521V137.773L176.029 137.245C176.197 137.125 176.313 137.029 176.377 136.957C176.441 136.885 176.473 136.809 176.473 136.729C176.473 136.617 176.425 136.521 176.329 136.441L176.233 136.369L176.329 136.249H177.781L177.853 136.453C177.653 136.501 177.429 136.613 177.181 136.789L175.765 137.821C176.117 137.861 176.389 137.945 176.581 138.073C176.773 138.201 176.913 138.385 177.001 138.625L177.337 139.585C177.393 139.761 177.505 139.849 177.673 139.849C177.793 139.849 177.925 139.789 178.069 139.669L178.165 139.789ZM180.575 139.861C180.807 139.861 181.011 139.821 181.187 139.741C181.363 139.653 181.535 139.509 181.703 139.309L181.847 139.417C181.663 139.681 181.427 139.889 181.139 140.041C180.859 140.185 180.551 140.257 180.215 140.257C179.847 140.257 179.515 140.169 179.219 139.993C178.931 139.817 178.703 139.577 178.535 139.273C178.367 138.961 178.283 138.609 178.283 138.217C178.283 137.593 178.471 137.097 178.847 136.729C179.231 136.353 179.739 136.165 180.371 136.165C180.819 136.165 181.183 136.273 181.463 136.489C181.751 136.697 181.895 136.969 181.895 137.305C181.895 137.689 181.731 137.997 181.403 138.229C181.083 138.453 180.643 138.565 180.083 138.565C179.859 138.565 179.655 138.549 179.471 138.517C179.511 138.933 179.631 139.261 179.831 139.501C180.031 139.741 180.279 139.861 180.575 139.861ZM180.239 136.453C179.991 136.453 179.795 136.605 179.651 136.909C179.515 137.205 179.447 137.621 179.447 138.157V138.349C179.535 138.349 179.643 138.341 179.771 138.325C180.107 138.285 180.363 138.177 180.539 138.001C180.723 137.817 180.815 137.577 180.815 137.281C180.815 137.041 180.759 136.845 180.647 136.693C180.543 136.533 180.407 136.453 180.239 136.453ZM184.399 139.933C184.599 139.877 184.743 139.825 184.831 139.777C184.919 139.721 184.979 139.649 185.011 139.561C185.043 139.473 185.059 139.337 185.059 139.153V136.117C185.059 135.797 185.035 135.545 184.987 135.361C184.939 135.177 184.847 134.993 184.711 134.809L184.615 134.677L184.711 134.545H187.231C187.671 134.545 187.967 134.493 188.119 134.389L188.263 134.281L188.383 134.389V135.889L188.143 135.973C187.999 135.541 187.855 135.245 187.711 135.085C187.575 134.925 187.375 134.845 187.111 134.845H186.715C186.507 134.845 186.371 134.885 186.307 134.965C186.243 135.037 186.211 135.197 186.211 135.445V137.245H187.063C187.375 137.245 187.579 137.125 187.675 136.885L187.735 136.717L187.891 136.801V138.145L187.627 138.241L187.579 137.989C187.547 137.813 187.475 137.697 187.363 137.641C187.251 137.577 187.039 137.545 186.727 137.545H186.211V138.577C186.211 138.889 186.235 139.141 186.283 139.333C186.339 139.517 186.435 139.701 186.571 139.885L186.667 140.029L186.571 140.149H184.483L184.399 139.933ZM190.316 139.465C190.316 139.705 190.392 139.825 190.544 139.825C190.696 139.825 190.844 139.765 190.988 139.645L191.084 139.765C190.804 140.093 190.456 140.257 190.04 140.257C189.76 140.257 189.556 140.193 189.428 140.065C189.3 139.929 189.236 139.717 189.236 139.429V135.025C189.236 134.913 189.184 134.857 189.08 134.857H188.696L188.66 134.737C188.812 134.593 189.008 134.481 189.248 134.401C189.496 134.313 189.74 134.269 189.98 134.269C190.084 134.269 190.164 134.293 190.22 134.341C190.284 134.381 190.316 134.441 190.316 134.521V139.465ZM192.861 139.465C192.861 139.705 192.937 139.825 193.089 139.825C193.241 139.825 193.389 139.765 193.533 139.645L193.629 139.765C193.333 140.093 192.985 140.257 192.585 140.257C192.297 140.257 192.089 140.185 191.961 140.041C191.833 139.889 191.769 139.645 191.769 139.309V136.933C191.769 136.821 191.717 136.765 191.613 136.765H191.241L191.205 136.633C191.365 136.497 191.565 136.385 191.805 136.297C192.045 136.209 192.285 136.165 192.525 136.165C192.621 136.165 192.701 136.189 192.765 136.237C192.829 136.285 192.861 136.349 192.861 136.429V139.465ZM191.649 135.013C191.649 134.869 191.729 134.709 191.889 134.533C192.049 134.357 192.197 134.269 192.333 134.269C192.477 134.269 192.629 134.357 192.789 134.533C192.957 134.709 193.041 134.869 193.041 135.013C193.041 135.165 192.957 135.329 192.789 135.505C192.629 135.673 192.477 135.757 192.333 135.757C192.197 135.757 192.049 135.673 191.889 135.505C191.729 135.329 191.649 135.165 191.649 135.013ZM195.224 141.277C195.224 141.453 195.276 141.597 195.38 141.709C195.492 141.821 195.632 141.877 195.8 141.877C196.36 141.877 196.64 141.421 196.64 140.509V139.345C196.44 139.577 196.232 139.749 196.016 139.861C195.8 139.973 195.56 140.029 195.296 140.029C194.904 140.029 194.584 139.865 194.336 139.537C194.096 139.209 193.976 138.777 193.976 138.241C193.976 137.601 194.172 137.097 194.564 136.729C194.956 136.353 195.484 136.165 196.148 136.165C196.324 136.165 196.516 136.181 196.724 136.213C196.94 136.245 197.072 136.265 197.12 136.273C197.456 136.321 197.688 136.353 197.816 136.369L197.912 136.465L197.816 136.609C197.744 136.705 197.708 136.805 197.708 136.909V140.149C197.708 140.781 197.524 141.269 197.156 141.613C196.796 141.965 196.292 142.141 195.644 142.141C195.244 142.141 194.92 142.065 194.672 141.913C194.424 141.761 194.3 141.561 194.3 141.313C194.3 141.097 194.364 140.921 194.492 140.785C194.62 140.657 194.788 140.593 194.996 140.593C195.148 140.593 195.296 140.625 195.44 140.689C195.296 140.833 195.224 141.029 195.224 141.277ZM195.872 139.453C196.192 139.453 196.444 139.285 196.628 138.949V136.561C196.444 136.481 196.268 136.441 196.1 136.441C195.796 136.441 195.564 136.577 195.404 136.849C195.252 137.113 195.176 137.501 195.176 138.013C195.176 138.477 195.236 138.833 195.356 139.081C195.476 139.329 195.648 139.453 195.872 139.453ZM202.754 139.465C202.754 139.705 202.83 139.825 202.982 139.825C203.134 139.825 203.282 139.765 203.426 139.645L203.522 139.765C203.226 140.093 202.878 140.257 202.478 140.257C202.19 140.257 201.982 140.185 201.854 140.041C201.734 139.889 201.674 139.645 201.674 139.309V137.473C201.674 137.009 201.526 136.777 201.23 136.777C200.942 136.777 200.71 136.973 200.534 137.365C200.358 137.757 200.27 138.269 200.27 138.901C200.27 139.149 200.286 139.349 200.318 139.501C200.358 139.645 200.422 139.781 200.51 139.909L200.606 140.029L200.51 140.149H198.77L198.698 139.945L198.866 139.909C198.994 139.877 199.078 139.829 199.118 139.765C199.158 139.693 199.178 139.557 199.178 139.357V135.073C199.178 135.009 199.162 134.957 199.13 134.917C199.106 134.877 199.07 134.857 199.022 134.857H198.65L198.602 134.737C198.754 134.593 198.95 134.481 199.19 134.401C199.438 134.313 199.682 134.269 199.922 134.269C200.026 134.269 200.11 134.293 200.174 134.341C200.238 134.381 200.27 134.441 200.27 134.521V137.485C200.382 137.109 200.578 136.797 200.858 136.549C201.146 136.293 201.45 136.165 201.77 136.165C202.114 136.165 202.362 136.277 202.514 136.501C202.674 136.725 202.754 137.081 202.754 137.569V139.465ZM205.209 140.257C204.881 140.257 204.645 140.185 204.501 140.041C204.357 139.889 204.285 139.645 204.285 139.309V136.765H203.685C203.685 136.629 203.693 136.541 203.709 136.501C203.725 136.461 203.773 136.429 203.853 136.405C204.117 136.333 204.325 136.221 204.477 136.069C204.629 135.917 204.753 135.697 204.849 135.409C204.873 135.321 204.913 135.269 204.969 135.253C205.025 135.229 205.161 135.217 205.377 135.217V136.297H206.361C206.361 136.401 206.345 136.497 206.313 136.585C206.281 136.665 206.237 136.725 206.181 136.765H205.377V139.465C205.377 139.705 205.477 139.825 205.677 139.825C205.765 139.825 205.861 139.797 205.965 139.741C206.077 139.685 206.177 139.609 206.265 139.513L206.361 139.633C206.017 140.049 205.633 140.257 205.209 140.257Z" fill="black"/>
</g>
<defs>
<filter id="filter0_d_390_228" x="25.3604" y="81.16" width="200.948" height="78.5199" filterUnits="userSpaceOnUse" color-interpolation-filters="sRGB">
<feFlood flood-opacity="0" result="BackgroundImageFix"/>
<feColorMatrix in="SourceAlpha" type="matrix" values="0 0 0 0 0 0 0 0 0 0 0 0 0 0 0 0 0 0 127 0" result="hardAlpha"/>
<feOffset dy="8"/>
<feGaussianBlur stdDeviation="4"/>
<feComposite in2="hardAlpha" operator="out"/>
<feColorMatrix type="matrix" values="0 0 0 0 0.73275 0 0 0 0 0.109167 0 0 0 0 1 0 0 0 0.25 0"/>
<feBlend mode="normal" in2="BackgroundImageFix" result="effect1_dropShadow_390_228"/>
<feBlend mode="normal" in="SourceGraphic" in2="effect1_dropShadow_390_228" result="shape"/>
</filter>
<filter id="filter1_d_390_228" x="29.3604" y="81.16" width="192.948" height="70.5199" filterUnits="userSpaceOnUse" color-interpolation-filters="sRGB">
<feFlood flood-opacity="0" result="BackgroundImageFix"/>
<feColorMatrix in="SourceAlpha" type="matrix" values="0 0 0 0 0 0 0 0 0 0 0 0 0 0 0 0 0 0 127 0" result="hardAlpha"/>
<feOffset dy="4"/>
<feGaussianBlur stdDeviation="2"/>
<feComposite in2="hardAlpha" operator="out"/>
<feColorMatrix type="matrix" values="0 0 0 0 0 0 0 0 0 0 0 0 0 0 0 0 0 0 0.25 0"/>
<feBlend mode="normal" in2="BackgroundImageFix" result="effect1_dropShadow_390_228"/>
<feBlend mode="normal" in="SourceGraphic" in2="effect1_dropShadow_390_228" result="shape"/>
</filter>
<filter id="filter2_d_390_228" x="33.3604" y="81.16" width="55.8799" height="70.5199" filterUnits="userSpaceOnUse" color-interpolation-filters="sRGB">
<feFlood flood-opacity="0" result="BackgroundImageFix"/>
<feColorMatrix in="SourceAlpha" type="matrix" values="0 0 0 0 0 0 0 0 0 0 0 0 0 0 0 0 0 0 127 0" result="hardAlpha"/>
<feOffset dx="4" dy="4"/>
<feGaussianBlur stdDeviation="2"/>
<feComposite in2="hardAlpha" operator="out"/>
<feColorMatrix type="matrix" values="0 0 0 0 0 0 0 0 0 0 0 0 0 0 0 0 0 0 0.25 0"/>
<feBlend mode="normal" in2="BackgroundImageFix" result="effect1_dropShadow_390_228"/>
<feBlend mode="normal" in="SourceGraphic" in2="effect1_dropShadow_390_228" result="shape"/>
</filter>
<filter id="filter3_d_390_228" x="87.4336" y="105.858" width="138.875" height="30.8438" filterUnits="userSpaceOnUse" color-interpolation-filters="sRGB">
<feFlood flood-opacity="0" result="BackgroundImageFix"/>
<feColorMatrix in="SourceAlpha" type="matrix" values="0 0 0 0 0 0 0 0 0 0 0 0 0 0 0 0 0 0 127 0" result="hardAlpha"/>
<feOffset dx="4" dy="4"/>
<feGaussianBlur stdDeviation="2"/>
<feComposite in2="hardAlpha" operator="out"/>
<feColorMatrix type="matrix" values="0 0 0 0 0 0 0 0 0 0 0 0 0 0 0 0 0 0 0.25 0"/>
<feBlend mode="normal" in2="BackgroundImageFix" result="effect1_dropShadow_390_228"/>
<feBlend mode="normal" in="SourceGraphic" in2="effect1_dropShadow_390_228" result="shape"/>
</filter>
</defs>
</svg>
