<svg width="222" height="124" viewBox="0 0 222 124" fill="none" xmlns="http://www.w3.org/2000/svg">
<g clip-path="url(#clip0_524_1549)">
<rect width="222" height="124" fill="white"/>
<path d="M67.2574 25.2426C69.6005 22.8995 73.3995 22.8995 75.7426 25.2426L108.757 58.2574C111.101 60.6005 111.101 64.3995 108.757 66.7426L75.7426 99.7574C73.3995 102.101 69.6005 102.101 67.2574 99.7574L34.2426 66.7426C31.8995 64.3995 31.8995 60.6005 34.2426 58.2574L67.2574 25.2426Z" fill="#65DAFF"/>
<path d="M77.016 67.336H82.536V70H73.656V53.248H77.016V67.336ZM97.5116 63.064C97.5116 63.544 97.4796 63.976 97.4156 64.36H87.6956C87.7756 65.32 88.1116 66.072 88.7036 66.616C89.2956 67.16 90.0236 67.432 90.8876 67.432C92.1356 67.432 93.0236 66.896 93.5516 65.824H97.1756C96.7916 67.104 96.0556 68.16 94.9676 68.992C93.8796 69.808 92.5436 70.216 90.9596 70.216C89.6796 70.216 88.5276 69.936 87.5036 69.376C86.4956 68.8 85.7036 67.992 85.1276 66.952C84.5676 65.912 84.2876 64.712 84.2876 63.352C84.2876 61.976 84.5676 60.768 85.1276 59.728C85.6876 58.688 86.4716 57.888 87.4796 57.328C88.4876 56.768 89.6476 56.488 90.9596 56.488C92.2236 56.488 93.3516 56.76 94.3436 57.304C95.3516 57.848 96.1276 58.624 96.6716 59.632C97.2316 60.624 97.5116 61.768 97.5116 63.064ZM94.0316 62.104C94.0156 61.24 93.7036 60.552 93.0956 60.04C92.4876 59.512 91.7436 59.248 90.8636 59.248C90.0316 59.248 89.3276 59.504 88.7516 60.016C88.1916 60.512 87.8476 61.208 87.7196 62.104H94.0316ZM99.5801 63.304C99.5801 61.96 99.8441 60.768 100.372 59.728C100.916 58.688 101.644 57.888 102.556 57.328C103.484 56.768 104.516 56.488 105.652 56.488C106.644 56.488 107.508 56.688 108.244 57.088C108.996 57.488 109.596 57.992 110.044 58.6V56.704H113.428V70H110.044V68.056C109.612 68.68 109.012 69.2 108.244 69.616C107.492 70.016 106.62 70.216 105.628 70.216C104.508 70.216 103.484 69.928 102.556 69.352C101.644 68.776 100.916 67.968 100.372 66.928C99.8441 65.872 99.5801 64.664 99.5801 63.304ZM110.044 63.352C110.044 62.536 109.884 61.84 109.564 61.264C109.244 60.672 108.812 60.224 108.268 59.92C107.724 59.6 107.14 59.44 106.516 59.44C105.892 59.44 105.316 59.592 104.788 59.896C104.26 60.2 103.828 60.648 103.492 61.24C103.172 61.816 103.012 62.504 103.012 63.304C103.012 64.104 103.172 64.808 103.492 65.416C103.828 66.008 104.26 66.464 104.788 66.784C105.332 67.104 105.908 67.264 106.516 67.264C107.14 67.264 107.724 67.112 108.268 66.808C108.812 66.488 109.244 66.04 109.564 65.464C109.884 64.872 110.044 64.168 110.044 63.352ZM120.55 58.768C120.982 58.064 121.542 57.512 122.23 57.112C122.934 56.712 123.734 56.512 124.63 56.512V60.04H123.742C122.686 60.04 121.886 60.288 121.342 60.784C120.814 61.28 120.55 62.144 120.55 63.376V70H117.19V56.704H120.55V58.768ZM134.741 56.512C136.325 56.512 137.605 57.016 138.581 58.024C139.557 59.016 140.045 60.408 140.045 62.2V70H136.685V62.656C136.685 61.6 136.421 60.792 135.893 60.232C135.365 59.656 134.645 59.368 133.733 59.368C132.805 59.368 132.069 59.656 131.525 60.232C130.997 60.792 130.733 61.6 130.733 62.656V70H127.373V56.704H130.733V58.36C131.181 57.784 131.749 57.336 132.437 57.016C133.141 56.68 133.909 56.512 134.741 56.512ZM145.424 55.12C144.832 55.12 144.336 54.936 143.936 54.568C143.552 54.184 143.36 53.712 143.36 53.152C143.36 52.592 143.552 52.128 143.936 51.76C144.336 51.376 144.832 51.184 145.424 51.184C146.016 51.184 146.504 51.376 146.888 51.76C147.288 52.128 147.488 52.592 147.488 53.152C147.488 53.712 147.288 54.184 146.888 54.568C146.504 54.936 146.016 55.12 145.424 55.12ZM147.08 56.704V70H143.72V56.704H147.08ZM158.224 70L155.488 65.872L153.064 70H149.464L153.808 63.328L149.416 56.704H153.208L155.92 60.808L158.368 56.704H161.968L157.6 63.328L162.016 70H158.224Z" fill="black"/>
</g>
<defs>
<clipPath id="clip0_524_1549">
<rect width="222" height="124" fill="white"/>
</clipPath>
</defs>
</svg>
