<svg width="50" height="50" viewBox="0 0 50 50" fill="none" xmlns="http://www.w3.org/2000/svg">
<g clip-path="url(#clip0_303_8)">
<rect width="50" height="50" rx="10" fill="white"/>
<g filter="url(#filter0_d_303_8)">
<rect width="100" height="100" rx="10" fill="#FDF9F9"/>
</g>
<g filter="url(#filter1_d_303_8)">
<path d="M10.1648 14.6364L14.7188 29.5511H14.8878L19.4418 14.6364H24.9503L18.0795 35H11.527L4.65625 14.6364H10.1648ZM34.6697 35H27.1428V14.6364H34.6598C36.7346 14.6364 38.5211 15.044 40.0192 15.8594C41.5239 16.6681 42.6839 17.8348 43.4993 19.3594C44.3146 20.8774 44.7223 22.6937 44.7223 24.8082C44.7223 26.9295 44.3146 28.7524 43.4993 30.277C42.6906 31.8016 41.5339 32.9716 40.0291 33.7869C38.5244 34.5956 36.7379 35 34.6697 35ZM32.0646 30.804H34.4808C35.621 30.804 36.5855 30.6117 37.3743 30.2273C38.1697 29.8362 38.7696 29.2031 39.174 28.3281C39.585 27.4465 39.7905 26.2732 39.7905 24.8082C39.7905 23.3433 39.585 22.1766 39.174 21.3082C38.763 20.4332 38.1565 19.8035 37.3544 19.419C36.5589 19.0279 35.5779 18.8324 34.4112 18.8324H32.0646V30.804Z" fill="url(#paint0_linear_303_8)" shape-rendering="crispEdges"/>
</g>
</g>
<defs>
<filter id="filter0_d_303_8" x="-4" y="0" width="108" height="108" filterUnits="userSpaceOnUse" color-interpolation-filters="sRGB">
<feFlood flood-opacity="0" result="BackgroundImageFix"/>
<feColorMatrix in="SourceAlpha" type="matrix" values="0 0 0 0 0 0 0 0 0 0 0 0 0 0 0 0 0 0 127 0" result="hardAlpha"/>
<feOffset dy="4"/>
<feGaussianBlur stdDeviation="2"/>
<feComposite in2="hardAlpha" operator="out"/>
<feColorMatrix type="matrix" values="0 0 0 0 0 0 0 0 0 0 0 0 0 0 0 0 0 0 0.25 0"/>
<feBlend mode="normal" in2="BackgroundImageFix" result="effect1_dropShadow_303_8"/>
<feBlend mode="normal" in="SourceGraphic" in2="effect1_dropShadow_303_8" result="shape"/>
</filter>
<filter id="filter1_d_303_8" x="0.65625" y="14.6364" width="48.066" height="28.3636" filterUnits="userSpaceOnUse" color-interpolation-filters="sRGB">
<feFlood flood-opacity="0" result="BackgroundImageFix"/>
<feColorMatrix in="SourceAlpha" type="matrix" values="0 0 0 0 0 0 0 0 0 0 0 0 0 0 0 0 0 0 127 0" result="hardAlpha"/>
<feOffset dy="4"/>
<feGaussianBlur stdDeviation="2"/>
<feComposite in2="hardAlpha" operator="out"/>
<feColorMatrix type="matrix" values="0 0 0 0 0 0 0 0 0 0 0 0 0 0 0 0 0 0 0.25 0"/>
<feBlend mode="normal" in2="BackgroundImageFix" result="effect1_dropShadow_303_8"/>
<feBlend mode="normal" in="SourceGraphic" in2="effect1_dropShadow_303_8" result="shape"/>
</filter>
<linearGradient id="paint0_linear_303_8" x1="5.22159" y1="8" x2="34.0932" y2="42.1709" gradientUnits="userSpaceOnUse">
<stop offset="0.19855" stop-color="#1ABCFE"/>
<stop offset="0.429" stop-color="#8A6AFF" stop-opacity="0.63"/>
<stop offset="0.519609" stop-color="#A259FF"/>
<stop offset="1" stop-color="#1ABCFE"/>
</linearGradient>
<clipPath id="clip0_303_8">
<rect width="50" height="50" rx="10" fill="white"/>
</clipPath>
</defs>
</svg>
